<svg xmlns="http://www.w3.org/2000/svg" viewBox="0 0 327.3 327.2" fill="#fff"><path d="M164 3.5C75.4 3.5 3.5 75.4 3.5 164S75.4 324.5 164 324.5 324.5 252.6 324.5 164 252.6 3.5 164 3.5zm137.4 100.3c1.7 3.8 3.2 7.8 4.6 11.8-2 5.9-4.4 11.9-7.3 18.1-5.8 12.5-13.6 25.4-23.5 37.9-1.2 1.6-2.5 3.1-3.8 4.6-.7.8-1.3 1.5-2 2.3-.1.1-.2.2-.2.3-1.2-3.8-2.2-7.7-3.1-11.6 9.8-11.5 17.7-23.6 23.8-35.4 4.9-9.7 8.7-19.2 11.5-28zM164 314c-69.8 0-128.5-47.7-145.2-112.3 3.6 6.8 7.9 13.4 12.7 19.7 6.4 8.2 13.8 15.9 22.1 22.7 2 1.8 4.2 3.3 6.4 5 2.2 1.6 4.5 3.1 6.7 4.6 4.6 2.9 9.3 5.7 14.3 8 19.8 9.8 42.3 14.7 64.8 14.2 11.1-.4 22.2-1.3 33.1-3.1 2.7-.4 5.4-1 8.2-1.6l4.1-.8 4-1c2.7-.7 5.4-1.3 8-2.1 2.6-.8 5.3-1.6 7.9-2.4 20.8-6.8 40.3-16.4 57.6-28.2-2.6-4.6-5-9.3-7.3-14.1-.5.4-1 .8-1.6 1.1C244 235.3 226 245 206.6 252c-2.4.8-4.9 1.7-7.3 2.5-2.5.8-5 1.5-7.5 2.2l-3.8 1.1-3.8.9c-2.5.6-5.1 1.3-7.6 1.7-10.3 2.1-20.7 3.3-31.2 4-20.7 1.1-41.7-2.7-60.5-11.2-4.7-2-9.2-4.5-13.6-7.1-2.2-1.4-4.3-2.7-6.4-4.1-2.1-1.5-4.2-2.9-6.2-4.5-8-6.2-15.3-13.1-21.6-20.7-10-12.1-17.5-25.6-22.6-39.4-.3-4.4-.5-8.9-.5-13.4v-.8c4.1 14.5 11.2 28.9 21.1 41.8 5.7 7.4 12.4 14.3 19.8 20.4 1.8 1.6 3.8 3 5.7 4.5 2 1.4 4 2.8 6 4.1 4.1 2.6 8.4 5.1 12.8 7.2 17.7 8.8 38 13.2 58.2 12.9 9.9-.3 19.9-1.1 29.7-2.7 2.5-.4 4.9-.9 7.3-1.4l3.7-.7 3.6-.9 7.2-1.8c2.4-.7 4.7-1.4 7.1-2.2 18.8-6.1 36.4-14.8 51.9-25.4 1-.7 2-1.3 2.9-2 .9-.7 1.9-1.4 2.8-2.1 1-.8 2-1.5 3-2.3-2.2-5.3-4.1-10.7-5.9-16.1-.6.5-1.2 1.1-1.8 1.6-1.6 1.4-3.3 2.7-5 4-.8.7-1.7 1.3-2.5 2-.9.6-1.8 1.3-2.6 1.9-14 10.4-30 19-47.3 25.3-2.2.8-4.3 1.5-6.5 2.3-2.2.7-4.4 1.3-6.7 2l-3.3 1-3.4.8c-2.3.5-4.5 1.1-6.8 1.6-9.1 1.9-18.5 3-27.9 3.6-18.4 1-37.1-2.3-53.9-9.9-4.2-1.8-8.2-4-12.2-6.3-1.9-1.2-3.9-2.4-5.7-3.7-1.8-1.3-3.7-2.5-5.5-4-7.2-5.5-13.7-11.7-19.3-18.4-11.2-13.6-19.1-29.2-23.3-44.9-1-3.6-1.7-7.1-2.3-10.7.4-3.1.9-6.2 1.5-9.3.4 2.9 1 5.8 1.6 8.8 3.3 14.8 10.1 29.7 20.2 43 5.1 6.6 11 12.8 17.7 18.3 1.6 1.4 3.4 2.7 5.1 4 1.7 1.3 3.6 2.5 5.4 3.7 3.7 2.3 7.5 4.6 11.5 6.5 15.8 7.9 34 11.9 52.1 11.6 8.9-.3 17.8-1 26.5-2.4 2.2-.3 4.4-.8 6.5-1.2l3.3-.6 3.2-.8c2.1-.5 4.3-1 6.4-1.6 2.1-.6 4.2-1.3 6.3-1.9 16.8-5.4 32.5-13.1 46.5-22.6.9-.6 1.8-1.2 2.6-1.8.8-.6 1.7-1.2 2.5-1.9 1.7-1.3 3.4-2.5 5-3.7 3-2.5 6-4.8 8.8-7.4-1.7-6.4-3.1-13-4.2-19.5-.9 1-1.8 1.9-2.7 2.9-.6.7-1.3 1.3-1.9 2-.7.6-1.3 1.3-2 1.9-2.6 2.6-5.5 5.1-8.3 7.6-1.4 1.2-2.9 2.4-4.4 3.6-.7.6-1.5 1.2-2.2 1.8-.8.6-1.6 1.1-2.3 1.7-12.4 9.2-26.6 16.9-41.8 22.5-1.9.7-3.9 1.3-5.8 2-1.9.6-3.9 1.2-5.9 1.8l-3 .9-3 .7c-2 .5-4 1-6 1.4-8.1 1.7-16.4 2.7-24.7 3.3-16.3.9-32.9-2-47.7-8.6-3.7-1.6-7.3-3.5-10.8-5.5-1.7-1.1-3.4-2.1-5.1-3.2-1.6-1.2-3.3-2.2-4.9-3.5-6.4-4.8-12.1-10.3-17.1-16.3-10-12-17-25.8-20.7-39.8-1.9-7-3-13.9-3.5-20.8v-.5C38.2 59.6 95.8 14 164 14c50.3 0 94.9 24.8 122.1 62.8-.1.5-.1 1-.2 1.5-.4 2.1-.7 4.3-1.1 6.6-.4 2.3-1 4.6-1.5 7-2.3 9.6-5.7 20.3-10.8 31.3-5.1 11.1-12 22.5-20.7 33.6-.1.2-.3.4-.5.6l-.5.1c3.4 26.1 11.7 51.4 24.5 74.5 2.1-1.6 4.2-3.1 6.2-4.7 4-3.3 8-6.4 11.7-9.9.9-.8 1.9-1.7 2.8-2.5l1.4-1.3 1.3-1.3 5.3-5.3c.9-.9 1.7-1.8 2.6-2.7.8-.9 1.7-1.8 2.5-2.7l.2-.2C292.7 266.2 233.9 314 164 314zm136.4-129.1c-1.3 1.8-2.9 3.4-4.3 5.2-.7.9-1.5 1.7-2.2 2.6-.7.9-1.5 1.7-2.3 2.6-1.6 1.7-3.2 3.3-4.7 5l-1.2 1.3-1.3 1.2c-.8.8-1.7 1.6-2.5 2.4l-1.8 1.8c-1.6-3.3-3.1-6.7-4.4-10.1 1.5-1.4 2.9-2.9 4.3-4.3.8-.8 1.6-1.6 2.3-2.4.7-.8 1.5-1.6 2.2-2.4 1.5-1.6 3-3.2 4.4-4.9 9.7-11.4 17.8-23.2 24.3-34.9.6 5.3.9 10.7.9 16.1v1.8c-4.2 6.3-8.7 12.7-13.7 19z"/></svg>